<svg xmlns="http://www.w3.org/2000/svg" width="44" height="44" fill="none" viewBox="0 0 44 44"><rect width="38" height="38" x="3" y="3" fill="#2BC784" rx="19"/><path fill="#fff" d="M15.7551 21.5573C15.2191 20.9256 14.2725 20.848 13.6409 21.384C13.0092 21.92 12.9316 22.8666 13.4676 23.4983L15.7551 21.5573ZM19.5373 28.3333L18.3935 29.3038C18.6785 29.6397 19.0967 29.8333 19.5373 29.8333C19.9778 29.8333 20.396 29.6397 20.681 29.3038L19.5373 28.3333ZM30.5329 17.6927C31.0688 17.061 30.9913 16.1144 30.3596 15.5785C29.7279 15.0425 28.7813 15.1201 28.2453 15.7518L30.5329 17.6927ZM13.4676 23.4983L18.3935 29.3038L20.681 27.3629L15.7551 21.5573L13.4676 23.4983ZM20.681 29.3038L30.5329 17.6927L28.2453 15.7518L18.3935 27.3629L20.681 29.3038Z"/></svg>